<svg width="230" height="179" viewBox="0 0 230 179" fill="none" xmlns="http://www.w3.org/2000/svg">
<rect x="0.882812" y="0.311523" width="13.3117" height="18.6364" rx="5.32468" fill="#F9F9F9"/>
<rect x="24.8438" y="0.311523" width="13.3117" height="18.6364" rx="5.32468" fill="#F9F9F9"/>
<rect x="48.8047" y="0.311523" width="13.3117" height="18.6364" rx="5.32468" fill="#F9F9F9"/>
<rect x="72.7656" y="0.311523" width="13.3117" height="18.6364" rx="5.32468" fill="#F9F9F9"/>
<rect x="96.7266" y="0.311523" width="13.3117" height="18.6364" rx="5.32468" fill="#F9F9F9"/>
<rect x="120.688" y="0.311523" width="13.3117" height="18.6364" rx="5.32468" fill="#F9F9F9"/>
<rect x="144.648" y="0.311523" width="13.3117" height="18.6364" rx="5.32468" fill="#F9F9F9"/>
<rect x="168.609" y="0.311523" width="13.3117" height="18.6364" rx="5.32468" fill="#F9F9F9"/>
<rect x="192.57" y="0.311523" width="13.3117" height="18.6364" rx="5.32468" fill="#F9F9F9"/>
<rect x="216.531" y="0.311523" width="13.3117" height="18.6364" rx="5.32468" fill="#F9F9F9"/>
<rect x="0.882812" y="22.9414" width="228.961" height="133.117" rx="1.33117" fill="#F9F9F9"/>
<rect x="0.882812" y="160.052" width="13.3117" height="18.6364" rx="5.32468" fill="#F9F9F9"/>
<rect x="24.8438" y="160.052" width="13.3117" height="18.6364" rx="5.32468" fill="#F9F9F9"/>
<rect x="48.8047" y="160.052" width="13.3117" height="18.6364" rx="5.32468" fill="#F9F9F9"/>
<rect x="72.7656" y="160.052" width="13.3117" height="18.6364" rx="5.32468" fill="#F9F9F9"/>
<rect x="96.7266" y="160.052" width="13.3117" height="18.6364" rx="5.32468" fill="#F9F9F9"/>
<rect x="120.688" y="160.052" width="13.3117" height="18.6364" rx="5.32468" fill="#F9F9F9"/>
<rect x="144.648" y="160.052" width="13.3117" height="18.6364" rx="5.32468" fill="#F9F9F9"/>
<rect x="168.609" y="160.052" width="13.3117" height="18.6364" rx="5.32468" fill="#F9F9F9"/>
<rect x="192.57" y="160.052" width="13.3117" height="18.6364" rx="5.32468" fill="#F9F9F9"/>
<rect x="216.531" y="160.052" width="13.3117" height="18.6364" rx="5.32468" fill="#F9F9F9"/>
</svg>
